<svg xmlns="http://www.w3.org/2000/svg" width="127.487" height="118.725" viewBox="0 0 127.487 118.725"><g transform="translate(-8.226 486.65)"><path d="M84.81-486.612c-.206.052-1.26.232-2.315.386a36.092,36.092,0,0,0-13.245,5.4A40.355,40.355,0,0,0,55.877-464.8l-1.286,2.752-1.415-.206a35.858,35.858,0,0,0-10.03.412,26.881,26.881,0,0,0-18.8,16.383,28.837,28.837,0,0,0-1.775,7.844c0,1.9-.206,2.212-2.289,3.652a32.814,32.814,0,0,0-7.741,7.69c-2.6,3.884-3.961,8.41-4.269,14.12a29.539,29.539,0,0,0,25.745,30.837c1.44.18,7.87.283,17.052.283H65.778V-377a32.014,32.014,0,0,0,.283,5.041,6.682,6.682,0,0,0,3.189,3.549,7.8,7.8,0,0,0,5.4,0,6.885,6.885,0,0,0,3.009-2.984c.257-.617.36-4.964.463-20.138l.129-19.366,2.058,1.569a19.982,19.982,0,0,0,2.932,1.955,6.658,6.658,0,0,0,4.244,0,7.884,7.884,0,0,0,3.5-3.421,6.4,6.4,0,0,0-.257-5.581c-.823-1.234-14.557-11.831-16.434-12.705a4.493,4.493,0,0,0-2.881-.489,7.315,7.315,0,0,0-2.366.617c-2.032,1.209-15.277,11.7-15.869,12.576a6.4,6.4,0,0,0-.257,5.581,7.884,7.884,0,0,0,3.5,3.421,6.736,6.736,0,0,0,4.269,0,19.4,19.4,0,0,0,2.675-1.749c.977-.772,1.929-1.466,2.109-1.569.231-.18.309,1.62.309,8.539v8.77H50.99c-16.923,0-17.232-.026-21.167-1.955a16.741,16.741,0,0,1-9.233-16.049c.334-6.481,3.729-11.522,9.85-14.608,2.238-1.132,3.729-2.546,4.166-3.935a25.964,25.964,0,0,0,.412-4.089,30.811,30.811,0,0,1,.669-5.324c2.315-9.516,10.8-13.862,19.855-10.21a6.275,6.275,0,0,0,5.632-.1c1.826-.926,2.649-2.135,3.6-5.452a36.859,36.859,0,0,1,4.012-8.924,28.64,28.64,0,0,1,6.738-6.79,11.242,11.242,0,0,1,2.238-1.26c.206,0,.154.592-.206,1.98a39.239,39.239,0,0,0-.36,12.165,33.943,33.943,0,0,0,3.266,9.9c5.864,11.908,18.878,20.935,31.866,22.144a5.834,5.834,0,0,1,3.292,1.132A17.131,17.131,0,0,1,123-406.883a17.362,17.362,0,0,1-12.088,12.859c-1.209.36-3.086.489-8.513.617l-6.97.154-1.26.772a6.288,6.288,0,0,0-1.286,9.542c1.62,1.672,2.752,1.9,9.259,1.9,8.487,0,11.985-.643,17.026-3.086,14.377-6.97,20.627-24.561,13.734-38.707a26.56,26.56,0,0,0-6.2-8.41l-3.035-3.009.643-1.569a53.107,53.107,0,0,0,2.443-9.67,43.6,43.6,0,0,0-.643-12.86,34.792,34.792,0,0,0-10.262-17.514,39.41,39.41,0,0,0-18.7-10.03,29.957,29.957,0,0,0-7.33-.72C87.279-486.663,85.016-486.663,84.81-486.612Zm11.316,13.168a27.262,27.262,0,0,1,11.548,6.61c7.433,7.176,9.31,17.335,5.041,27.494-.463,1.106-.386,1.106-3.986-.154a35.483,35.483,0,0,1-13.5-8.462C88.591-455,87.2-463.8,91.266-472.8l.72-1.62.977.18C93.5-474.138,94.918-473.8,96.127-473.443Z" transform="translate(0 0)" fill="#1ada20"/></g></svg>